<?xml version="1.0" encoding="UTF-8" standalone="no"?><svg xmlns="http://www.w3.org/2000/svg" xmlns:xlink="http://www.w3.org/1999/xlink" contentStyleType="text/css" height="632px" preserveAspectRatio="none" style="width:1517px;height:632px;background:#FFFFFF;" version="1.1" viewBox="0 0 1517 632" width="1517px" zoomAndPan="magnify"><defs/><g><rect height="26.2969" rx="2.5" ry="2.5" style="stroke:#00000000;stroke-width:1.0;fill:none;" width="139" x="682" y="5"/><text fill="#000000" font-family="&quot;Microsoft YaHei&quot;" font-size="14" font-weight="bold" lengthAdjust="spacing" textLength="129" x="687" y="22.9951">CSRF 组件类关系图</text><!--MD5=[dcda66dabdb739ec36f1175150e3c9d5]
class Factory--><g id="elem_Factory"><rect codeLine="27" fill="#85BBF0" height="88.8906" id="Factory" rx="2.5" ry="2.5" style="stroke:#78A8D8;stroke-width:0.5;" width="129" x="1058" y="44.2969"/><ellipse cx="1094.15" cy="60.2969" fill="#ADD1B2" rx="11" ry="11" style="stroke:#181818;stroke-width:1.0;"/><path d="M1097.1188,65.9375 Q1096.5406,66.2344 1095.9,66.375 Q1095.2594,66.5313 1094.5563,66.5313 Q1092.0563,66.5313 1090.7281,64.8906 Q1089.4156,63.2344 1089.4156,60.1094 Q1089.4156,56.9844 1090.7281,55.3281 Q1092.0563,53.6719 1094.5563,53.6719 Q1095.2594,53.6719 1095.9,53.8281 Q1096.5563,53.9844 1097.1188,54.2813 L1097.1188,57 Q1096.4938,56.4219 1095.9,56.1563 Q1095.3063,55.875 1094.6813,55.875 Q1093.3375,55.875 1092.65,56.9531 Q1091.9625,58.0156 1091.9625,60.1094 Q1091.9625,62.2031 1092.65,63.2813 Q1093.3375,64.3438 1094.6813,64.3438 Q1095.3063,64.3438 1095.9,64.0781 Q1096.4938,63.7969 1097.1188,63.2188 L1097.1188,65.9375 Z " fill="#000000"/><text fill="#000000" font-family="&quot;Microsoft YaHei&quot;" font-size="14" lengthAdjust="spacing" textLength="50" x="1112.85" y="65.1436">Factory</text><line style="stroke:#78A8D8;stroke-width:0.5;" x1="1059" x2="1186" y1="76.2969" y2="76.2969"/><line style="stroke:#78A8D8;stroke-width:1.0;stroke-dasharray:1.0,2.0;" x1="1059" x2="1093" y1="92.4453" y2="92.4453"/><text fill="#000000" font-family="&quot;Microsoft YaHei&quot;" font-size="14" font-weight="bold" lengthAdjust="spacing" textLength="59" x="1093" y="96.792">Factory</text><line style="stroke:#78A8D8;stroke-width:1.0;stroke-dasharray:1.0,2.0;" x1="1152" x2="1186" y1="92.4453" y2="92.4453"/><line style="stroke:#78A8D8;stroke-width:1.0;stroke-dasharray:1.0,2.0;" x1="1059" x2="1062" y1="116.8906" y2="116.8906"/><text fill="#000000" font-family="&quot;Microsoft YaHei&quot;" font-size="14" lengthAdjust="spacing" textLength="121" x="1062" y="121.2373">[CSRF 组件工厂类]</text><line style="stroke:#78A8D8;stroke-width:1.0;stroke-dasharray:1.0,2.0;" x1="1183" x2="1186" y1="116.8906" y2="116.8906"/></g><!--MD5=[4296a1ab0576a383a1a509d52c22ebf0]
class Type--><g id="elem_Type"><rect codeLine="31" fill="#85BBF0" height="88.8906" id="Type" rx="2.5" ry="2.5" style="stroke:#78A8D8;stroke-width:0.5;" width="115" x="1120" y="208.2969"/><ellipse cx="1157.05" cy="224.2969" fill="#ADD1B2" rx="11" ry="11" style="stroke:#181818;stroke-width:1.0;"/><path d="M1160.0188,229.9375 Q1159.4406,230.2344 1158.8,230.375 Q1158.1594,230.5313 1157.4563,230.5313 Q1154.9563,230.5313 1153.6281,228.8906 Q1152.3156,227.2344 1152.3156,224.1094 Q1152.3156,220.9844 1153.6281,219.3281 Q1154.9563,217.6719 1157.4563,217.6719 Q1158.1594,217.6719 1158.8,217.8281 Q1159.4563,217.9844 1160.0188,218.2813 L1160.0188,221 Q1159.3938,220.4219 1158.8,220.1563 Q1158.2063,219.875 1157.5813,219.875 Q1156.2375,219.875 1155.55,220.9531 Q1154.8625,222.0156 1154.8625,224.1094 Q1154.8625,226.2031 1155.55,227.2813 Q1156.2375,228.3438 1157.5813,228.3438 Q1158.2063,228.3438 1158.8,228.0781 Q1159.3938,227.7969 1160.0188,227.2188 L1160.0188,229.9375 Z " fill="#000000"/><text fill="#000000" font-family="&quot;Microsoft YaHei&quot;" font-size="14" lengthAdjust="spacing" textLength="34" x="1175.95" y="229.1436">Type</text><line style="stroke:#78A8D8;stroke-width:0.5;" x1="1121" x2="1234" y1="240.2969" y2="240.2969"/><line style="stroke:#78A8D8;stroke-width:1.0;stroke-dasharray:1.0,2.0;" x1="1121" x2="1158" y1="256.4453" y2="256.4453"/><text fill="#000000" font-family="&quot;Microsoft YaHei&quot;" font-size="14" font-weight="bold" lengthAdjust="spacing" textLength="39" x="1158" y="260.792">Type</text><line style="stroke:#78A8D8;stroke-width:1.0;stroke-dasharray:1.0,2.0;" x1="1197" x2="1234" y1="256.4453" y2="256.4453"/><line style="stroke:#78A8D8;stroke-width:1.0;stroke-dasharray:1.0,2.0;" x1="1121" x2="1124" y1="280.8906" y2="280.8906"/><text fill="#000000" font-family="&quot;Microsoft YaHei&quot;" font-size="14" lengthAdjust="spacing" textLength="107" x="1124" y="285.2373">[CSRF 组件类型]</text><line style="stroke:#78A8D8;stroke-width:1.0;stroke-dasharray:1.0,2.0;" x1="1231" x2="1234" y1="280.8906" y2="280.8906"/></g><!--MD5=[5eea25c66340537cd3e2fe72afffdeaa]
class VerifyResponse--><g id="elem_VerifyResponse"><rect codeLine="35" fill="#85BBF0" height="88.8906" id="VerifyResponse" rx="2.5" ry="2.5" style="stroke:#78A8D8;stroke-width:0.5;" width="171" x="1270" y="208.2969"/><ellipse cx="1298.95" cy="224.2969" fill="#ADD1B2" rx="11" ry="11" style="stroke:#181818;stroke-width:1.0;"/><path d="M1301.9188,229.9375 Q1301.3406,230.2344 1300.7,230.375 Q1300.0594,230.5313 1299.3563,230.5313 Q1296.8563,230.5313 1295.5281,228.8906 Q1294.2156,227.2344 1294.2156,224.1094 Q1294.2156,220.9844 1295.5281,219.3281 Q1296.8563,217.6719 1299.3563,217.6719 Q1300.0594,217.6719 1300.7,217.8281 Q1301.3563,217.9844 1301.9188,218.2813 L1301.9188,221 Q1301.2938,220.4219 1300.7,220.1563 Q1300.1063,219.875 1299.4813,219.875 Q1298.1375,219.875 1297.45,220.9531 Q1296.7625,222.0156 1296.7625,224.1094 Q1296.7625,226.2031 1297.45,227.2813 Q1298.1375,228.3438 1299.4813,228.3438 Q1300.1063,228.3438 1300.7,228.0781 Q1301.2938,227.7969 1301.9188,227.2188 L1301.9188,229.9375 Z " fill="#000000"/><text fill="#000000" font-family="&quot;Microsoft YaHei&quot;" font-size="14" lengthAdjust="spacing" textLength="108" x="1316.05" y="229.1436">VerifyResponse</text><line style="stroke:#78A8D8;stroke-width:0.5;" x1="1271" x2="1440" y1="240.2969" y2="240.2969"/><line style="stroke:#78A8D8;stroke-width:1.0;stroke-dasharray:1.0,2.0;" x1="1271" x2="1293" y1="256.4453" y2="256.4453"/><text fill="#000000" font-family="&quot;Microsoft YaHei&quot;" font-size="14" font-weight="bold" lengthAdjust="spacing" textLength="125" x="1293" y="260.792">VerifyResponse</text><line style="stroke:#78A8D8;stroke-width:1.0;stroke-dasharray:1.0,2.0;" x1="1418" x2="1440" y1="256.4453" y2="256.4453"/><line style="stroke:#78A8D8;stroke-width:1.0;stroke-dasharray:1.0,2.0;" x1="1271" x2="1274" y1="280.8906" y2="280.8906"/><text fill="#000000" font-family="&quot;Microsoft YaHei&quot;" font-size="14" lengthAdjust="spacing" textLength="163" x="1274" y="285.2373">[CSRF 组件验证返回结构]</text><line style="stroke:#78A8D8;stroke-width:1.0;stroke-dasharray:1.0,2.0;" x1="1437" x2="1440" y1="280.8906" y2="280.8906"/></g><!--MD5=[5c0eb67a6a4b471579a32057e208c544]
class IConfig--><g id="elem_IConfig"><rect codeLine="40" fill="#20B2AA" height="88.8906" id="IConfig" rx="2.5" ry="2.5" style="stroke:#78A8D8;stroke-width:0.5;" width="143" x="942" y="208.2969"/><ellipse cx="985.8" cy="224.2969" fill="#B4A7E5" rx="11" ry="11" style="stroke:#181818;stroke-width:1.0;"/><path d="M981.7219,220.0625 L981.7219,217.9063 L989.1125,217.9063 L989.1125,220.0625 L986.6438,220.0625 L986.6438,228.1406 L989.1125,228.1406 L989.1125,230.2969 L981.7219,230.2969 L981.7219,228.1406 L984.1906,228.1406 L984.1906,220.0625 L981.7219,220.0625 Z " fill="#000000"/><text fill="#000000" font-family="&quot;Microsoft YaHei&quot;" font-size="14" font-style="italic" lengthAdjust="spacing" textLength="47" x="1006.2" y="229.1436">IConfig</text><line style="stroke:#78A8D8;stroke-width:0.5;" x1="943" x2="1084" y1="240.2969" y2="240.2969"/><line style="stroke:#78A8D8;stroke-width:1.0;stroke-dasharray:1.0,2.0;" x1="943" x2="986" y1="256.4453" y2="256.4453"/><text fill="#000000" font-family="&quot;Microsoft YaHei&quot;" font-size="14" font-weight="bold" lengthAdjust="spacing" textLength="55" x="986" y="260.792">IConfig</text><line style="stroke:#78A8D8;stroke-width:1.0;stroke-dasharray:1.0,2.0;" x1="1041" x2="1084" y1="256.4453" y2="256.4453"/><line style="stroke:#78A8D8;stroke-width:1.0;stroke-dasharray:1.0,2.0;" x1="943" x2="946" y1="280.8906" y2="280.8906"/><text fill="#000000" font-family="&quot;Microsoft YaHei&quot;" font-size="14" lengthAdjust="spacing" textLength="135" x="946" y="285.2373">[CSRF 组件配置接口]</text><line style="stroke:#78A8D8;stroke-width:1.0;stroke-dasharray:1.0,2.0;" x1="1081" x2="1084" y1="280.8906" y2="280.8906"/></g><!--MD5=[894a1e867781a1e76979c62c70e74046]
class GoogleRecaptchaV2Config--><g id="elem_GoogleRecaptchaV2Config"><rect codeLine="44" fill="#85BBF0" height="88.8906" id="GoogleRecaptchaV2Config" rx="2.5" ry="2.5" style="stroke:#78A8D8;stroke-width:0.5;" width="283" x="713" y="372.2969"/><ellipse cx="757.25" cy="388.2969" fill="#ADD1B2" rx="11" ry="11" style="stroke:#181818;stroke-width:1.0;"/><path d="M760.2188,393.9375 Q759.6406,394.2344 759,394.375 Q758.3594,394.5313 757.6563,394.5313 Q755.1563,394.5313 753.8281,392.8906 Q752.5156,391.2344 752.5156,388.1094 Q752.5156,384.9844 753.8281,383.3281 Q755.1563,381.6719 757.6563,381.6719 Q758.3594,381.6719 759,381.8281 Q759.6563,381.9844 760.2188,382.2813 L760.2188,385 Q759.5938,384.4219 759,384.1563 Q758.4063,383.875 757.7813,383.875 Q756.4375,383.875 755.75,384.9531 Q755.0625,386.0156 755.0625,388.1094 Q755.0625,390.2031 755.75,391.2813 Q756.4375,392.3438 757.7813,392.3438 Q758.4063,392.3438 759,392.0781 Q759.5938,391.7969 760.2188,391.2188 L760.2188,393.9375 Z " fill="#000000"/><text fill="#000000" font-family="&quot;Microsoft YaHei&quot;" font-size="14" lengthAdjust="spacing" textLength="186" x="777.75" y="393.1436">GoogleRecaptchaV2Config</text><line style="stroke:#78A8D8;stroke-width:0.5;" x1="714" x2="995" y1="404.2969" y2="404.2969"/><line style="stroke:#78A8D8;stroke-width:1.0;stroke-dasharray:1.0,2.0;" x1="714" x2="749.5" y1="420.4453" y2="420.4453"/><text fill="#000000" font-family="&quot;Microsoft YaHei&quot;" font-size="14" font-weight="bold" lengthAdjust="spacing" textLength="210" x="749.5" y="424.792">GoogleRecaptchaV2Config</text><line style="stroke:#78A8D8;stroke-width:1.0;stroke-dasharray:1.0,2.0;" x1="959.5" x2="995" y1="420.4453" y2="420.4453"/><line style="stroke:#78A8D8;stroke-width:1.0;stroke-dasharray:1.0,2.0;" x1="714" x2="717" y1="444.8906" y2="444.8906"/><text fill="#000000" font-family="&quot;Microsoft YaHei&quot;" font-size="14" lengthAdjust="spacing" textLength="275" x="717" y="449.2373">[Google Recaptcha V2 CSRF 组件配置类]</text><line style="stroke:#78A8D8;stroke-width:1.0;stroke-dasharray:1.0,2.0;" x1="992" x2="995" y1="444.8906" y2="444.8906"/></g><!--MD5=[13cb53be48f79bebcd85796f1d545ef1]
class GoogleRecaptchaV3Config--><g id="elem_GoogleRecaptchaV3Config"><rect codeLine="48" fill="#85BBF0" height="88.8906" id="GoogleRecaptchaV3Config" rx="2.5" ry="2.5" style="stroke:#78A8D8;stroke-width:0.5;" width="283" x="1031" y="372.2969"/><ellipse cx="1075.25" cy="388.2969" fill="#ADD1B2" rx="11" ry="11" style="stroke:#181818;stroke-width:1.0;"/><path d="M1078.2188,393.9375 Q1077.6406,394.2344 1077,394.375 Q1076.3594,394.5313 1075.6563,394.5313 Q1073.1563,394.5313 1071.8281,392.8906 Q1070.5156,391.2344 1070.5156,388.1094 Q1070.5156,384.9844 1071.8281,383.3281 Q1073.1563,381.6719 1075.6563,381.6719 Q1076.3594,381.6719 1077,381.8281 Q1077.6563,381.9844 1078.2188,382.2813 L1078.2188,385 Q1077.5938,384.4219 1077,384.1563 Q1076.4063,383.875 1075.7813,383.875 Q1074.4375,383.875 1073.75,384.9531 Q1073.0625,386.0156 1073.0625,388.1094 Q1073.0625,390.2031 1073.75,391.2813 Q1074.4375,392.3438 1075.7813,392.3438 Q1076.4063,392.3438 1077,392.0781 Q1077.5938,391.7969 1078.2188,391.2188 L1078.2188,393.9375 Z " fill="#000000"/><text fill="#000000" font-family="&quot;Microsoft YaHei&quot;" font-size="14" lengthAdjust="spacing" textLength="186" x="1095.75" y="393.1436">GoogleRecaptchaV3Config</text><line style="stroke:#78A8D8;stroke-width:0.5;" x1="1032" x2="1313" y1="404.2969" y2="404.2969"/><line style="stroke:#78A8D8;stroke-width:1.0;stroke-dasharray:1.0,2.0;" x1="1032" x2="1067.5" y1="420.4453" y2="420.4453"/><text fill="#000000" font-family="&quot;Microsoft YaHei&quot;" font-size="14" font-weight="bold" lengthAdjust="spacing" textLength="210" x="1067.5" y="424.792">GoogleRecaptchaV3Config</text><line style="stroke:#78A8D8;stroke-width:1.0;stroke-dasharray:1.0,2.0;" x1="1277.5" x2="1313" y1="420.4453" y2="420.4453"/><line style="stroke:#78A8D8;stroke-width:1.0;stroke-dasharray:1.0,2.0;" x1="1032" x2="1035" y1="444.8906" y2="444.8906"/><text fill="#000000" font-family="&quot;Microsoft YaHei&quot;" font-size="14" lengthAdjust="spacing" textLength="275" x="1035" y="449.2373">[Google Recaptcha V3 CSRF 组件配置类]</text><line style="stroke:#78A8D8;stroke-width:1.0;stroke-dasharray:1.0,2.0;" x1="1310" x2="1313" y1="444.8906" y2="444.8906"/></g><!--MD5=[dca9d3a44d4f8f05232163d58d25433a]
class InternalCsrfConfig--><g id="elem_InternalCsrfConfig"><rect codeLine="52" fill="#85BBF0" height="88.8906" id="InternalCsrfConfig" rx="2.5" ry="2.5" style="stroke:#78A8D8;stroke-width:0.5;" width="161" x="1349" y="372.2969"/><ellipse cx="1367.15" cy="388.2969" fill="#ADD1B2" rx="11" ry="11" style="stroke:#181818;stroke-width:1.0;"/><path d="M1370.1188,393.9375 Q1369.5406,394.2344 1368.9,394.375 Q1368.2594,394.5313 1367.5563,394.5313 Q1365.0563,394.5313 1363.7281,392.8906 Q1362.4156,391.2344 1362.4156,388.1094 Q1362.4156,384.9844 1363.7281,383.3281 Q1365.0563,381.6719 1367.5563,381.6719 Q1368.2594,381.6719 1368.9,381.8281 Q1369.5563,381.9844 1370.1188,382.2813 L1370.1188,385 Q1369.4938,384.4219 1368.9,384.1563 Q1368.3063,383.875 1367.6813,383.875 Q1366.3375,383.875 1365.65,384.9531 Q1364.9625,386.0156 1364.9625,388.1094 Q1364.9625,390.2031 1365.65,391.2813 Q1366.3375,392.3438 1367.6813,392.3438 Q1368.3063,392.3438 1368.9,392.0781 Q1369.4938,391.7969 1370.1188,391.2188 L1370.1188,393.9375 Z " fill="#000000"/><text fill="#000000" font-family="&quot;Microsoft YaHei&quot;" font-size="14" lengthAdjust="spacing" textLength="122" x="1381.85" y="393.1436">InternalCsrfConfig</text><line style="stroke:#78A8D8;stroke-width:0.5;" x1="1350" x2="1509" y1="404.2969" y2="404.2969"/><line style="stroke:#78A8D8;stroke-width:1.0;stroke-dasharray:1.0,2.0;" x1="1350" x2="1357.5" y1="420.4453" y2="420.4453"/><text fill="#000000" font-family="&quot;Microsoft YaHei&quot;" font-size="14" font-weight="bold" lengthAdjust="spacing" textLength="144" x="1357.5" y="424.792">InternalCsrfConfig</text><line style="stroke:#78A8D8;stroke-width:1.0;stroke-dasharray:1.0,2.0;" x1="1501.5" x2="1509" y1="420.4453" y2="420.4453"/><line style="stroke:#78A8D8;stroke-width:1.0;stroke-dasharray:1.0,2.0;" x1="1350" x2="1353" y1="444.8906" y2="444.8906"/><text fill="#000000" font-family="&quot;Microsoft YaHei&quot;" font-size="14" lengthAdjust="spacing" textLength="153" x="1353" y="449.2373">[内部 CSRF 组件配置类]</text><line style="stroke:#78A8D8;stroke-width:1.0;stroke-dasharray:1.0,2.0;" x1="1506" x2="1509" y1="444.8906" y2="444.8906"/></g><!--MD5=[fe1e30943095b11b81d8e07b0ccadac3]
class ICsrf--><g id="elem_ICsrf"><rect codeLine="57" fill="#20B2AA" height="88.8906" id="ICsrf" rx="2.5" ry="2.5" style="stroke:#78A8D8;stroke-width:0.5;" width="115" x="429" y="208.2969"/><ellipse cx="467.85" cy="224.2969" fill="#B4A7E5" rx="11" ry="11" style="stroke:#181818;stroke-width:1.0;"/><path d="M463.7719,220.0625 L463.7719,217.9063 L471.1625,217.9063 L471.1625,220.0625 L468.6938,220.0625 L468.6938,228.1406 L471.1625,228.1406 L471.1625,230.2969 L463.7719,230.2969 L463.7719,228.1406 L466.2406,228.1406 L466.2406,220.0625 L463.7719,220.0625 Z " fill="#000000"/><text fill="#000000" font-family="&quot;Microsoft YaHei&quot;" font-size="14" font-style="italic" lengthAdjust="spacing" textLength="30" x="487.15" y="229.1436">ICsrf</text><line style="stroke:#78A8D8;stroke-width:0.5;" x1="430" x2="543" y1="240.2969" y2="240.2969"/><line style="stroke:#78A8D8;stroke-width:1.0;stroke-dasharray:1.0,2.0;" x1="430" x2="468" y1="256.4453" y2="256.4453"/><text fill="#000000" font-family="&quot;Microsoft YaHei&quot;" font-size="14" font-weight="bold" lengthAdjust="spacing" textLength="37" x="468" y="260.792">ICsrf</text><line style="stroke:#78A8D8;stroke-width:1.0;stroke-dasharray:1.0,2.0;" x1="505" x2="543" y1="256.4453" y2="256.4453"/><line style="stroke:#78A8D8;stroke-width:1.0;stroke-dasharray:1.0,2.0;" x1="430" x2="433" y1="280.8906" y2="280.8906"/><text fill="#000000" font-family="&quot;Microsoft YaHei&quot;" font-size="14" lengthAdjust="spacing" textLength="107" x="433" y="285.2373">[CSRF 组件接口]</text><line style="stroke:#78A8D8;stroke-width:1.0;stroke-dasharray:1.0,2.0;" x1="540" x2="543" y1="280.8906" y2="280.8906"/></g><!--MD5=[b4cd6003ee808f6f87094c20412e3f39]
class GoogleRecaptchaV2--><g id="elem_GoogleRecaptchaV2"><rect codeLine="61" fill="#85BBF0" height="88.8906" id="GoogleRecaptchaV2" rx="2.5" ry="2.5" style="stroke:#78A8D8;stroke-width:0.5;" width="241" x="7" y="372.2969"/><ellipse cx="52.25" cy="388.2969" fill="#ADD1B2" rx="11" ry="11" style="stroke:#181818;stroke-width:1.0;"/><path d="M55.2188,393.9375 Q54.6406,394.2344 54,394.375 Q53.3594,394.5313 52.6563,394.5313 Q50.1563,394.5313 48.8281,392.8906 Q47.5156,391.2344 47.5156,388.1094 Q47.5156,384.9844 48.8281,383.3281 Q50.1563,381.6719 52.6563,381.6719 Q53.3594,381.6719 54,381.8281 Q54.6563,381.9844 55.2188,382.2813 L55.2188,385 Q54.5938,384.4219 54,384.1563 Q53.4063,383.875 52.7813,383.875 Q51.4375,383.875 50.75,384.9531 Q50.0625,386.0156 50.0625,388.1094 Q50.0625,390.2031 50.75,391.2813 Q51.4375,392.3438 52.7813,392.3438 Q53.4063,392.3438 54,392.0781 Q54.5938,391.7969 55.2188,391.2188 L55.2188,393.9375 Z " fill="#000000"/><text fill="#000000" font-family="&quot;Microsoft YaHei&quot;" font-size="14" lengthAdjust="spacing" textLength="142" x="72.75" y="393.1436">GoogleRecaptchaV2</text><line style="stroke:#78A8D8;stroke-width:0.5;" x1="8" x2="247" y1="404.2969" y2="404.2969"/><line style="stroke:#78A8D8;stroke-width:1.0;stroke-dasharray:1.0,2.0;" x1="8" x2="48" y1="420.4453" y2="420.4453"/><text fill="#000000" font-family="&quot;Microsoft YaHei&quot;" font-size="14" font-weight="bold" lengthAdjust="spacing" textLength="159" x="48" y="424.792">GoogleRecaptchaV2</text><line style="stroke:#78A8D8;stroke-width:1.0;stroke-dasharray:1.0,2.0;" x1="207" x2="247" y1="420.4453" y2="420.4453"/><line style="stroke:#78A8D8;stroke-width:1.0;stroke-dasharray:1.0,2.0;" x1="8" x2="11" y1="444.8906" y2="444.8906"/><text fill="#000000" font-family="&quot;Microsoft YaHei&quot;" font-size="14" lengthAdjust="spacing" textLength="233" x="11" y="449.2373">[Google Recaptcha V2 CSRF 组件]</text><line style="stroke:#78A8D8;stroke-width:1.0;stroke-dasharray:1.0,2.0;" x1="244" x2="247" y1="444.8906" y2="444.8906"/></g><!--MD5=[d60cd25b938479453142ebeda057f67f]
class GoogleRecaptchaV3--><g id="elem_GoogleRecaptchaV3"><rect codeLine="65" fill="#85BBF0" height="88.8906" id="GoogleRecaptchaV3" rx="2.5" ry="2.5" style="stroke:#78A8D8;stroke-width:0.5;" width="241" x="283" y="372.2969"/><ellipse cx="328.25" cy="388.2969" fill="#ADD1B2" rx="11" ry="11" style="stroke:#181818;stroke-width:1.0;"/><path d="M331.2188,393.9375 Q330.6406,394.2344 330,394.375 Q329.3594,394.5313 328.6563,394.5313 Q326.1563,394.5313 324.8281,392.8906 Q323.5156,391.2344 323.5156,388.1094 Q323.5156,384.9844 324.8281,383.3281 Q326.1563,381.6719 328.6563,381.6719 Q329.3594,381.6719 330,381.8281 Q330.6563,381.9844 331.2188,382.2813 L331.2188,385 Q330.5938,384.4219 330,384.1563 Q329.4063,383.875 328.7813,383.875 Q327.4375,383.875 326.75,384.9531 Q326.0625,386.0156 326.0625,388.1094 Q326.0625,390.2031 326.75,391.2813 Q327.4375,392.3438 328.7813,392.3438 Q329.4063,392.3438 330,392.0781 Q330.5938,391.7969 331.2188,391.2188 L331.2188,393.9375 Z " fill="#000000"/><text fill="#000000" font-family="&quot;Microsoft YaHei&quot;" font-size="14" lengthAdjust="spacing" textLength="142" x="348.75" y="393.1436">GoogleRecaptchaV3</text><line style="stroke:#78A8D8;stroke-width:0.5;" x1="284" x2="523" y1="404.2969" y2="404.2969"/><line style="stroke:#78A8D8;stroke-width:1.0;stroke-dasharray:1.0,2.0;" x1="284" x2="324" y1="420.4453" y2="420.4453"/><text fill="#000000" font-family="&quot;Microsoft YaHei&quot;" font-size="14" font-weight="bold" lengthAdjust="spacing" textLength="159" x="324" y="424.792">GoogleRecaptchaV3</text><line style="stroke:#78A8D8;stroke-width:1.0;stroke-dasharray:1.0,2.0;" x1="483" x2="523" y1="420.4453" y2="420.4453"/><line style="stroke:#78A8D8;stroke-width:1.0;stroke-dasharray:1.0,2.0;" x1="284" x2="287" y1="444.8906" y2="444.8906"/><text fill="#000000" font-family="&quot;Microsoft YaHei&quot;" font-size="14" lengthAdjust="spacing" textLength="233" x="287" y="449.2373">[Google Recaptcha V3 CSRF 组件]</text><line style="stroke:#78A8D8;stroke-width:1.0;stroke-dasharray:1.0,2.0;" x1="520" x2="523" y1="444.8906" y2="444.8906"/></g><!--MD5=[03e9e703167706730582c645c9fa987b]
class InternalCsrf--><g id="elem_InternalCsrf"><rect codeLine="69" fill="#85BBF0" height="88.8906" id="InternalCsrf" rx="2.5" ry="2.5" style="stroke:#78A8D8;stroke-width:0.5;" width="119" x="559" y="372.2969"/><ellipse cx="578.05" cy="388.2969" fill="#ADD1B2" rx="11" ry="11" style="stroke:#181818;stroke-width:1.0;"/><path d="M581.0188,393.9375 Q580.4406,394.2344 579.8,394.375 Q579.1594,394.5313 578.4563,394.5313 Q575.9563,394.5313 574.6281,392.8906 Q573.3156,391.2344 573.3156,388.1094 Q573.3156,384.9844 574.6281,383.3281 Q575.9563,381.6719 578.4563,381.6719 Q579.1594,381.6719 579.8,381.8281 Q580.4563,381.9844 581.0188,382.2813 L581.0188,385 Q580.3938,384.4219 579.8,384.1563 Q579.2063,383.875 578.5813,383.875 Q577.2375,383.875 576.55,384.9531 Q575.8625,386.0156 575.8625,388.1094 Q575.8625,390.2031 576.55,391.2813 Q577.2375,392.3438 578.5813,392.3438 Q579.2063,392.3438 579.8,392.0781 Q580.3938,391.7969 581.0188,391.2188 L581.0188,393.9375 Z " fill="#000000"/><text fill="#000000" font-family="&quot;Microsoft YaHei&quot;" font-size="14" lengthAdjust="spacing" textLength="78" x="592.95" y="393.1436">InternalCsrf</text><line style="stroke:#78A8D8;stroke-width:0.5;" x1="560" x2="677" y1="404.2969" y2="404.2969"/><line style="stroke:#78A8D8;stroke-width:1.0;stroke-dasharray:1.0,2.0;" x1="560" x2="572" y1="420.4453" y2="420.4453"/><text fill="#000000" font-family="&quot;Microsoft YaHei&quot;" font-size="14" font-weight="bold" lengthAdjust="spacing" textLength="93" x="572" y="424.792">InternalCsrf</text><line style="stroke:#78A8D8;stroke-width:1.0;stroke-dasharray:1.0,2.0;" x1="665" x2="677" y1="420.4453" y2="420.4453"/><line style="stroke:#78A8D8;stroke-width:1.0;stroke-dasharray:1.0,2.0;" x1="560" x2="563" y1="444.8906" y2="444.8906"/><text fill="#000000" font-family="&quot;Microsoft YaHei&quot;" font-size="14" lengthAdjust="spacing" textLength="111" x="563" y="449.2373">[内部 CSRF 组件]</text><line style="stroke:#78A8D8;stroke-width:1.0;stroke-dasharray:1.0,2.0;" x1="674" x2="677" y1="444.8906" y2="444.8906"/></g><!--MD5=[52f92d978cd8618719cbddd2663a1164]
class CryptoUtils--><g id="elem_CryptoUtils"><rect codeLine="73" fill="#85BBF0" height="88.8906" id="CryptoUtils" rx="2.5" ry="2.5" style="stroke:#78A8D8;stroke-width:0.5;" width="106" x="565.5" y="536.2969"/><ellipse cx="580.5" cy="552.2969" fill="#ADD1B2" rx="11" ry="11" style="stroke:#181818;stroke-width:1.0;"/><path d="M583.4688,557.9375 Q582.8906,558.2344 582.25,558.375 Q581.6094,558.5313 580.9063,558.5313 Q578.4063,558.5313 577.0781,556.8906 Q575.7656,555.2344 575.7656,552.1094 Q575.7656,548.9844 577.0781,547.3281 Q578.4063,545.6719 580.9063,545.6719 Q581.6094,545.6719 582.25,545.8281 Q582.9063,545.9844 583.4688,546.2813 L583.4688,549 Q582.8438,548.4219 582.25,548.1563 Q581.6563,547.875 581.0313,547.875 Q579.6875,547.875 579,548.9531 Q578.3125,550.0156 578.3125,552.1094 Q578.3125,554.2031 579,555.2813 Q579.6875,556.3438 581.0313,556.3438 Q581.6563,556.3438 582.25,556.0781 Q582.8438,555.7969 583.4688,555.2188 L583.4688,557.9375 Z " fill="#000000"/><text fill="#000000" font-family="&quot;Microsoft YaHei&quot;" font-size="14" lengthAdjust="spacing" textLength="74" x="594.5" y="557.1436">CryptoUtils</text><line style="stroke:#78A8D8;stroke-width:0.5;" x1="566.5" x2="670.5" y1="568.2969" y2="568.2969"/><line style="stroke:#78A8D8;stroke-width:1.0;stroke-dasharray:1.0,2.0;" x1="566.5" x2="575" y1="584.4453" y2="584.4453"/><text fill="#000000" font-family="&quot;Microsoft YaHei&quot;" font-size="14" font-weight="bold" lengthAdjust="spacing" textLength="87" x="575" y="588.792">CryptoUtils</text><line style="stroke:#78A8D8;stroke-width:1.0;stroke-dasharray:1.0,2.0;" x1="662" x2="670.5" y1="584.4453" y2="584.4453"/><line style="stroke:#78A8D8;stroke-width:1.0;stroke-dasharray:1.0,2.0;" x1="566.5" x2="578.5" y1="608.8906" y2="608.8906"/><text fill="#000000" font-family="&quot;Microsoft YaHei&quot;" font-size="14" lengthAdjust="spacing" textLength="80" x="578.5" y="613.2373">[加密解密类]</text><line style="stroke:#78A8D8;stroke-width:1.0;stroke-dasharray:1.0,2.0;" x1="658.5" x2="670.5" y1="608.8906" y2="608.8906"/></g><!--MD5=[779b1ae850b3048ec37c755a245aa7e6]
link Factory to IConfig--><g id="link_Factory_IConfig"><path codeLine="78" d="M1091.11,133.4969 C1084.24,143.2469 1077.06,153.5769 1070.5,163.2969 C1061.77,176.2269 1052.53,190.3669 1044.08,203.4869 " fill="none" id="Factory-to-IConfig" style="stroke:#000000;stroke-width:1.0;"/><polygon fill="#000000" points="1041.25,207.8869,1049.4815,202.4793,1043.9538,203.681,1042.7521,198.1532,1041.25,207.8869" style="stroke:#000000;stroke-width:1.0;"/><text fill="#000000" font-family="&quot;Microsoft YaHei&quot;" font-size="12" lengthAdjust="spacing" textLength="68" x="1071.5" y="175.4355">depend on</text></g><!--MD5=[6da2b25df408550153ac661e1e973cce]
link Factory to Type--><g id="link_Factory_Type"><path codeLine="79" d="M1137.38,133.6369 C1144.69,155.1569 1153.51,181.1369 1161.02,203.2569 " fill="none" id="Factory-to-Type" style="stroke:#000000;stroke-width:1.0;"/><polygon fill="#000000" points="1162.7,208.2069,1163.6043,198.3996,1161.0974,203.4707,1156.0264,200.9638,1162.7,208.2069" style="stroke:#000000;stroke-width:1.0;"/><text fill="#000000" font-family="&quot;Microsoft YaHei&quot;" font-size="12" lengthAdjust="spacing" textLength="68" x="1153.5" y="175.4355">depend on</text></g><!--MD5=[bf62e3ee0abc56841207d9f338ca844e]
link Factory to VerifyResponse--><g id="link_Factory_VerifyResponse"><path codeLine="80" d="M1186.88,133.3269 C1201.27,143.1369 1216.43,153.5369 1230.5,163.2969 C1249.89,176.7569 1270.87,191.5269 1290,205.0769 " fill="none" id="Factory-to-VerifyResponse" style="stroke:#000000;stroke-width:1.0;"/><polygon fill="#000000" points="1294.31,208.1269,1289.3001,199.6474,1290.2375,205.2261,1284.6588,206.1635,1294.31,208.1269" style="stroke:#000000;stroke-width:1.0;"/><text fill="#000000" font-family="&quot;Microsoft YaHei&quot;" font-size="12" lengthAdjust="spacing" textLength="68" x="1252.5" y="175.4355">depend on</text></g><!--MD5=[529d2c543853ef20341aa5810f901f53]
link Factory to ICsrf--><g id="link_Factory_ICsrf"><path codeLine="81" d="M1057.72,106.2969 C935,137.5569 670.09,205.0369 549.09,235.8569 " fill="none" id="Factory-to-ICsrf" style="stroke:#000000;stroke-width:1.0;"/><polygon fill="#000000" points="544.14,237.1169,553.8473,238.781,548.9865,235.8874,551.8801,231.0266,544.14,237.1169" style="stroke:#000000;stroke-width:1.0;"/><text fill="#000000" font-family="&quot;Microsoft YaHei&quot;" font-size="12" lengthAdjust="spacing" textLength="68" x="825.5" y="175.4355">depend on</text></g><!--MD5=[f061f8816657380e15de4336f2a66b4e]
reverse link IConfig to GoogleRecaptchaV2Config--><g id="link_IConfig_GoogleRecaptchaV2Config"><path codeLine="82" d="M966.7,301.4769 C944.73,323.8669 918.73,350.3569 897.29,372.2069 " fill="none" id="IConfig-backto-GoogleRecaptchaV2Config" style="stroke:#000000;stroke-width:1.0;"/><polygon fill="#000000" points="970.47,297.6369,961.3138,301.2651,966.9704,301.2079,967.0275,306.8645,970.47,297.6369" style="stroke:#000000;stroke-width:1.0;"/><text fill="#000000" font-family="&quot;Microsoft YaHei&quot;" font-size="12" lengthAdjust="spacing" textLength="72" x="940.5" y="339.4355">implements</text></g><!--MD5=[43ac056d685673f97c9f147c930d1e44]
reverse link IConfig to GoogleRecaptchaV3Config--><g id="link_IConfig_GoogleRecaptchaV3Config"><path codeLine="83" d="M1060.3,301.4769 C1082.27,323.8669 1108.27,350.3569 1129.71,372.2069 " fill="none" id="IConfig-backto-GoogleRecaptchaV3Config" style="stroke:#000000;stroke-width:1.0;"/><polygon fill="#000000" points="1056.53,297.6369,1059.9725,306.8645,1060.0296,301.2079,1065.6862,301.2651,1056.53,297.6369" style="stroke:#000000;stroke-width:1.0;"/><text fill="#000000" font-family="&quot;Microsoft YaHei&quot;" font-size="12" lengthAdjust="spacing" textLength="72" x="1099.5" y="339.4355">implements</text></g><!--MD5=[955b9adc88b5774b7c001ab2edfe82c7]
reverse link IConfig to InternalCsrfConfig--><g id="link_IConfig_InternalCsrfConfig"><path codeLine="84" d="M1089.69,291.8769 C1093.99,293.7669 1098.29,295.5869 1102.5,297.2969 C1201.74,337.5769 1231.54,333.8569 1331.5,372.2969 C1337.15,374.4669 1342.94,376.7869 1348.75,379.1869 " fill="none" id="IConfig-backto-InternalCsrfConfig" style="stroke:#000000;stroke-width:1.0;"/><polygon fill="#000000" points="1085,289.7969,1091.6231,297.0863,1089.5755,291.813,1094.8488,289.7654,1085,289.7969" style="stroke:#000000;stroke-width:1.0;"/><text fill="#000000" font-family="&quot;Microsoft YaHei&quot;" font-size="12" lengthAdjust="spacing" textLength="72" x="1241.5" y="339.4355">implements</text></g><!--MD5=[b369c5892c522befe751d952fac3c1c0]
reverse link ICsrf to GoogleRecaptchaV2--><g id="link_ICsrf_GoogleRecaptchaV2"><path codeLine="85" d="M424.23,281.8969 C369.02,306.8069 287.53,343.5869 223.91,372.2969 " fill="none" id="ICsrf-backto-GoogleRecaptchaV2" style="stroke:#000000;stroke-width:1.0;"/><polygon fill="#000000" points="428.82,279.8269,418.9713,279.884,424.2628,281.884,422.2628,287.1755,428.82,279.8269" style="stroke:#000000;stroke-width:1.0;"/><text fill="#000000" font-family="&quot;Microsoft YaHei&quot;" font-size="12" lengthAdjust="spacing" textLength="72" x="319.5" y="339.4355">implements</text></g><!--MD5=[bc6684bec777bb91b6bd57e0a56fc8b2]
reverse link ICsrf to GoogleRecaptchaV3--><g id="link_ICsrf_GoogleRecaptchaV3"><path codeLine="86" d="M461.64,302.3169 C450.27,324.5169 436.89,350.6269 425.84,372.2069 " fill="none" id="ICsrf-backto-GoogleRecaptchaV3" style="stroke:#000000;stroke-width:1.0;"/><polygon fill="#000000" points="464.04,297.6369,456.3739,303.82,461.7584,302.086,463.4924,307.4705,464.04,297.6369" style="stroke:#000000;stroke-width:1.0;"/><text fill="#000000" font-family="&quot;Microsoft YaHei&quot;" font-size="12" lengthAdjust="spacing" textLength="72" x="448.5" y="339.4355">implements</text></g><!--MD5=[067dc12f1178695cf1006914d2a7a2c1]
reverse link ICsrf to InternalCsrf--><g id="link_ICsrf_InternalCsrf"><path codeLine="87" d="M525.58,301.7569 C543.77,324.0769 565.25,350.4469 582.98,372.2069 " fill="none" id="ICsrf-backto-InternalCsrf" style="stroke:#000000;stroke-width:1.0;"/><polygon fill="#000000" points="522.22,297.6369,524.7909,307.1443,525.373,301.5174,530.9998,302.0995,522.22,297.6369" style="stroke:#000000;stroke-width:1.0;"/><text fill="#000000" font-family="&quot;Microsoft YaHei&quot;" font-size="12" lengthAdjust="spacing" textLength="72" x="557.5" y="339.4355">implements</text></g><!--MD5=[1bb971b3baffa6fe7230d6f7b5d008bf]
link InternalCsrf to CryptoUtils--><g id="link_InternalCsrf_CryptoUtils"><path codeLine="88" d="M618.5,461.6369 C618.5,483.0669 618.5,508.9169 618.5,530.9769 " fill="none" id="InternalCsrf-to-CryptoUtils" style="stroke:#000000;stroke-width:1.0;"/><polygon fill="#000000" points="618.5,536.2069,622.5,527.2069,618.5,531.2069,614.5,527.2069,618.5,536.2069" style="stroke:#000000;stroke-width:1.0;"/><text fill="#000000" font-family="&quot;Microsoft YaHei&quot;" font-size="12" lengthAdjust="spacing" textLength="68" x="619.5" y="503.4355">depend on</text></g><!--MD5=[95b68934452facf1e8c604f3be171d1c]
@startuml
title CSRF 组件类关系图
' 设置全局样式
skinparam componentStyle rectangle
skinparam roundcorner 5
skinparam shadowing false
skinparam DefaultFontName "Microsoft YaHei"
skinparam DefaultTextAlignment center ' 强制全局文本居中
' 颜色定义
skinparam class {
    BackgroundColor #85BBF0
    BorderColor #78A8D8
    FontColor black
    FontSize 14
}
skinparam interface {
    BackgroundColor #20B2AA
    BorderColor #78A8D8
    FontColor black
    FontSize 14
}
skinparam arrow {
    Color #000000
    FontColor #000000
    FontSize 12
}
' 定义组件
class Factory {
    ..**Factory**..
    ..[CSRF 组件工厂类]..
}
class Type {
    ..**Type**..
    ..[CSRF 组件类型]..
}
class VerifyResponse {
    ..**VerifyResponse**..
    ..[CSRF 组件验证返回结构]..
}
' 配置接口与实现类
interface IConfig #20B2AA {
    ..**IConfig**..
    ..[CSRF 组件配置接口]..
}
class GoogleRecaptchaV2Config {
    ..**GoogleRecaptchaV2Config**..
    ..[Google Recaptcha V2 CSRF 组件配置类]..
}
class GoogleRecaptchaV3Config {
    ..**GoogleRecaptchaV3Config**..
    ..[Google Recaptcha V3 CSRF 组件配置类]..
}
class InternalCsrfConfig {
    ..**InternalCsrfConfig**..
    ..[内部 CSRF 组件配置类]..
}
' CSRF 接口与实现类
interface ICsrf #20B2AA {
    ..**ICsrf**..
    ..[CSRF 组件接口]..
}
class GoogleRecaptchaV2 {
    ..**GoogleRecaptchaV2**..
    ..[Google Recaptcha V2 CSRF 组件]..
}
class GoogleRecaptchaV3 {
    ..**GoogleRecaptchaV3**..
    ..[Google Recaptcha V3 CSRF 组件]..
}
class InternalCsrf {
    ..**InternalCsrf**..
    ..[内部 CSRF 组件]..
}
class CryptoUtils {
    ..**CryptoUtils**..
    ..[加密解密类]..
}
' 建立关系
Factory -down-> IConfig : "depend on"
Factory -down-> Type : "depend on"
Factory -down-> VerifyResponse : "depend on"
Factory -down-> ICsrf : "depend on"
GoogleRecaptchaV2Config -up-> IConfig : "implements"
GoogleRecaptchaV3Config -up-> IConfig : "implements"
InternalCsrfConfig -up-> IConfig : "implements"
GoogleRecaptchaV2 -up-> ICsrf : "implements"
GoogleRecaptchaV3 -up-> ICsrf : "implements"
InternalCsrf -up-> ICsrf : "implements"
InternalCsrf -down-> CryptoUtils : "depend on"
@enduml

@startuml
title CSRF 组件类关系图
skinparam componentStyle rectangle
skinparam roundcorner 5
skinparam shadowing false
skinparam DefaultFontName "Microsoft YaHei"
skinparam DefaultTextAlignment center ' 强制全局文本居中
skinparam class {
    BackgroundColor #85BBF0
    BorderColor #78A8D8
    FontColor black
    FontSize 14
}
skinparam interface {
    BackgroundColor #20B2AA
    BorderColor #78A8D8
    FontColor black
    FontSize 14
}
skinparam arrow {
    Color #000000
    FontColor #000000
    FontSize 12
}
class Factory {
    ..**Factory**..
    ..[CSRF 组件工厂类]..
}
class Type {
    ..**Type**..
    ..[CSRF 组件类型]..
}
class VerifyResponse {
    ..**VerifyResponse**..
    ..[CSRF 组件验证返回结构]..
}
interface IConfig #20B2AA {
    ..**IConfig**..
    ..[CSRF 组件配置接口]..
}
class GoogleRecaptchaV2Config {
    ..**GoogleRecaptchaV2Config**..
    ..[Google Recaptcha V2 CSRF 组件配置类]..
}
class GoogleRecaptchaV3Config {
    ..**GoogleRecaptchaV3Config**..
    ..[Google Recaptcha V3 CSRF 组件配置类]..
}
class InternalCsrfConfig {
    ..**InternalCsrfConfig**..
    ..[内部 CSRF 组件配置类]..
}
interface ICsrf #20B2AA {
    ..**ICsrf**..
    ..[CSRF 组件接口]..
}
class GoogleRecaptchaV2 {
    ..**GoogleRecaptchaV2**..
    ..[Google Recaptcha V2 CSRF 组件]..
}
class GoogleRecaptchaV3 {
    ..**GoogleRecaptchaV3**..
    ..[Google Recaptcha V3 CSRF 组件]..
}
class InternalCsrf {
    ..**InternalCsrf**..
    ..[内部 CSRF 组件]..
}
class CryptoUtils {
    ..**CryptoUtils**..
    ..[加密解密类]..
}
Factory -down-> IConfig : "depend on"
Factory -down-> Type : "depend on"
Factory -down-> VerifyResponse : "depend on"
Factory -down-> ICsrf : "depend on"
GoogleRecaptchaV2Config -up-> IConfig : "implements"
GoogleRecaptchaV3Config -up-> IConfig : "implements"
InternalCsrfConfig -up-> IConfig : "implements"
GoogleRecaptchaV2 -up-> ICsrf : "implements"
GoogleRecaptchaV3 -up-> ICsrf : "implements"
InternalCsrf -up-> ICsrf : "implements"
InternalCsrf -down-> CryptoUtils : "depend on"
@enduml

PlantUML version 1.2022.4(Sat Apr 09 13:29:17 UTC 2022)
(GPL source distribution)
Java Runtime: OpenJDK Runtime Environment
JVM: OpenJDK 64-Bit Server VM
Default Encoding: UTF-8
Language: en
Country: null
--></g></svg>